<svg xmlns="http://www.w3.org/2000/svg"  viewBox="0 0 80 80" width="80px" height="80px"><path fill="#8bb7f0" d="M17,76.5C9.556,76.5,3.5,70.444,3.5,63S9.556,49.5,17,49.5c2.002,0,3.949,0.443,5.785,1.317 l0.715,0.34V11.429l51-7.846V59c0,7.444-6.056,13.5-13.5,13.5S47.5,66.444,47.5,59S53.556,45.5,61,45.5 c2.002,0,3.949,0.443,5.785,1.317l0.715,0.34V23.63l-37,5.707V63C30.5,70.444,24.444,76.5,17,76.5z"/><path fill="#4e7ab5" d="M74,4.166V59c0,7.168-5.832,13-13,13s-13-5.832-13-13s5.832-13,13-13 c1.927,0,3.801,0.427,5.57,1.268l1.43,0.68v-1.583V24.213v-1.166l-1.152,0.178l-36,5.553L30,28.909v0.858V63 c0,7.168-5.832,13-13,13S4,70.168,4,63s5.832-13,13-13c1.927,0,3.801,0.427,5.57,1.268l1.43,0.68v-1.583V11.858L74,4.166 M75,3 l-52,8v39.365C21.179,49.499,19.15,49,17,49C9.268,49,3,55.268,3,63c0,7.732,6.268,14,14,14s14-6.268,14-14V29.766l36-5.553v22.152 C65.179,45.499,63.15,45,61,45c-7.732,0-14,6.268-14,14c0,7.732,6.268,14,14,14s14-6.268,14-14V3L75,3z"/></svg>